<svg width="22" height="22" viewBox="0 0 22 22" fill="none" xmlns="http://www.w3.org/2000/svg">
<path fill-rule="evenodd" clip-rule="evenodd" d="M7.23684 5.50001C6.75722 5.02039 5.97961 5.02039 5.49999 5.50001C5.02038 5.97962 5.02038 6.75723 5.49999 7.23685L9.26316 11L5.50001 14.7632C5.02039 15.2428 5.02039 16.0204 5.50001 16.5C5.97962 16.9796 6.75723 16.9796 7.23685 16.5L11 12.7369L14.7632 16.5C15.2428 16.9796 16.0204 16.9796 16.5 16.5C16.9796 16.0204 16.9796 15.2428 16.5 14.7632L12.7368 11L16.5 7.23685C16.9796 6.75723 16.9796 5.97962 16.5 5.50001C16.0204 5.02039 15.2428 5.02039 14.7632 5.50001L11 9.26317L7.23684 5.50001Z" fill="#27ACA0"/>
</svg>
