<svg width="14" height="14" viewBox="0 0 14 14" fill="none" xmlns="http://www.w3.org/2000/svg">
<path d="M9.83862 1.57867e-06C10.1688 -0.000696485 10.4299 0.230188 10.4307 0.538034L10.4315 1.06277C12.574 1.21389 13.9892 2.52784 13.9915 4.54283L14 10.4409C14.0031 12.6378 12.4695 13.9895 10.0114 13.993L4.00703 14C1.56427 14.0028 0.0115292 12.6189 0.00845747 10.4157L5.15464e-06 4.5869C-0.00306136 2.55862 1.3623 1.24818 3.50481 1.07117L3.50404 0.546429C3.50327 0.238584 3.75668 0.00699966 4.09457 0.00699966C4.43245 0.00630001 4.68587 0.237184 4.68664 0.54503L4.6874 1.03478L9.24886 1.02919L9.24809 0.539433C9.24732 0.231587 9.50074 0.000702814 9.83862 1.57867e-06ZM10.1519 9.93432H10.1443C9.79101 9.94202 9.50765 10.2086 9.51533 10.5304C9.5161 10.8523 9.801 11.1174 10.1542 11.1244C10.5144 11.1237 10.8062 10.8572 10.8054 10.5283C10.8054 10.1995 10.5129 9.93432 10.1519 9.93432ZM3.82426 9.93502C3.47102 9.94902 3.19456 10.2156 3.19533 10.5374C3.21146 10.8593 3.50327 11.1111 3.85651 11.0964C4.20285 11.0824 4.47853 10.8159 4.4624 10.494C4.45472 10.1792 4.16983 9.93432 3.82426 9.93502ZM6.9881 9.93152C6.63485 9.94622 6.35917 10.2121 6.35917 10.5339C6.3753 10.8558 6.66711 11.1069 7.02035 11.0929C7.36592 11.0783 7.64237 10.8124 7.62624 10.4898C7.61856 10.1757 7.33366 9.93083 6.9881 9.93152ZM3.82042 7.41628C3.46718 7.43028 3.19149 7.69685 3.19226 8.01868C3.20762 8.34052 3.5002 8.5924 3.85344 8.5777C4.19901 8.56371 4.47469 8.29714 4.45856 7.97531C4.45088 7.66046 4.16675 7.41559 3.82042 7.41628ZM6.98503 7.3918C6.63178 7.40579 6.35533 7.67236 6.3561 7.9942C6.37146 8.31604 6.66404 8.56721 7.01728 8.55322C7.36284 8.53852 7.63853 8.27266 7.62317 7.95082C7.61472 7.63598 7.33059 7.3911 6.98503 7.3918ZM10.1489 7.3953C9.79562 7.40229 9.51917 7.66116 9.51993 7.983V7.9907C9.52761 8.31254 9.81943 8.55671 10.1734 8.54972C10.519 8.54202 10.7947 8.27546 10.787 7.95362C10.7709 7.64577 10.4937 7.3946 10.1489 7.3953ZM9.2504 2.10665L4.68894 2.11224L4.68971 2.67826C4.68971 2.97981 4.43706 3.21769 4.09918 3.21769C3.76129 3.21839 3.50711 2.98121 3.50711 2.67966L3.50634 2.14093C2.00889 2.27596 1.18031 3.06797 1.1826 4.5855L1.18338 4.8031L12.8097 4.7891V4.54423C12.7767 3.03998 11.9381 2.25078 10.433 2.13323L10.4338 2.67196C10.4338 2.97281 10.1734 3.21139 9.84323 3.21139C9.50535 3.21209 9.25116 2.97421 9.25116 2.67336L9.2504 2.10665Z" fill="#27ACA0"/>
</svg>
