<svg width="31" height="35" viewBox="0 0 31 35" fill="none" xmlns="http://www.w3.org/2000/svg">
<path d="M11.1978 0.416786C12.5555 0.399994 13.8228 1.13458 14.654 2.38166L15.9373 4.38041C16.3457 4.97833 16.9582 5.33708 17.6144 5.33708H22.0915C27.4728 5.33708 30.0978 8.70249 30.0832 15.6042V23.9237C30.0832 30.5179 26.6123 34.5837 20.9686 34.5837H10.0165C4.40192 34.5837 0.916504 30.5179 0.916504 23.9067V11.0771C0.916504 4.00458 3.59984 0.416786 8.89359 0.416786H11.1978ZM22.2519 20.5583H8.74775C8.13525 20.5583 7.654 21.1221 7.654 21.8396C7.654 22.54 8.13525 23.1208 8.74775 23.1208H22.2519C22.8498 23.1208 23.3311 22.54 23.3311 21.8396C23.3311 21.1221 22.8498 20.5583 22.2519 20.5583Z" fill="#27ACA0"/>
</svg>
