<svg width="28" height="30" viewBox="0 0 28 30" fill="none" xmlns="http://www.w3.org/2000/svg">
<ellipse opacity="0.5" cx="14" cy="15" rx="14" ry="15" fill="#27ACA0"/>
<path fill-rule="evenodd" clip-rule="evenodd" d="M5.6363 13.8244C4.77159 13.8324 4.07652 14.4816 4.08383 15.2744C4.09114 16.0672 4.79806 16.7034 5.66278 16.6954L12.4475 16.6329L12.5049 22.8533C12.5122 23.6462 13.2191 24.2824 14.0838 24.2744C14.9486 24.2664 15.6436 23.6173 15.6363 22.8245L15.5789 16.604L22.3637 16.5414C23.2284 16.5335 23.9235 15.8843 23.9161 15.0915C23.9088 14.2987 23.2019 13.6625 22.3372 13.6704L15.5525 13.733L15.4951 7.51251C15.4878 6.71971 14.7809 6.08348 13.9162 6.09146C13.0514 6.09943 12.3564 6.74859 12.3637 7.54139L12.4211 13.7619L5.6363 13.8244Z" fill="white"/>
</svg>
