<svg width="23" height="24" viewBox="0 0 23 24" fill="none" xmlns="http://www.w3.org/2000/svg">
<path d="M7.74057 21.9022V18.3349C7.74057 17.4242 8.4842 16.686 9.40151 16.686H12.7547C13.1952 16.686 13.6177 16.8597 13.9292 17.169C14.2407 17.4782 14.4156 17.8976 14.4156 18.3349V21.9022C14.4129 22.2808 14.5624 22.6449 14.8311 22.9135C15.0998 23.1822 15.4654 23.3333 15.8468 23.3333H18.1345C19.2029 23.3361 20.2285 22.9167 20.985 22.1676C21.7415 21.4186 22.1667 20.4015 22.1667 19.3408V9.178C22.1667 8.3212 21.7841 7.50848 21.1221 6.95878L13.3397 0.788514C11.9859 -0.293345 10.0463 -0.258414 8.73296 0.871475L1.12818 6.95878C0.434864 7.49228 0.0204777 8.30741 0 9.178V19.3304C0 21.5412 1.80528 23.3333 4.0322 23.3333H6.26767C7.05976 23.3333 7.7035 22.6989 7.70924 21.9126L7.74057 21.9022Z" fill="#27ACA0"/>
</svg>
