<svg width="24" height="24" viewBox="0 0 24 24" fill="none" xmlns="http://www.w3.org/2000/svg">
<path opacity="0.5" d="M6.90667 13.3813C8.55167 13.3813 9.87 14.7125 9.87 16.3691V20.3463C9.87 21.9913 8.55167 23.333 6.90667 23.333H2.96333C1.33 23.333 0 21.9913 0 20.3463V16.3691C0 14.7125 1.33 13.3813 2.96333 13.3813H6.90667ZM20.3701 13.3813C22.0034 13.3813 23.3335 14.7125 23.3335 16.3691V20.3463C23.3335 21.9913 22.0034 23.333 20.3701 23.333H16.4268C14.7818 23.333 13.4635 21.9913 13.4635 20.3463V16.3691C13.4635 14.7125 14.7818 13.3813 16.4268 13.3813H20.3701ZM6.90667 0C8.55167 0 9.87 1.34167 9.87 2.98783V6.965C9.87 8.62167 8.55167 9.95167 6.90667 9.95167H2.96333C1.33 9.95167 0 8.62167 0 6.965V2.98783C0 1.34167 1.33 0 2.96333 0H6.90667ZM20.3701 0C22.0034 0 23.3335 1.34167 23.3335 2.98783V6.965C23.3335 8.62167 22.0034 9.95167 20.3701 9.95167H16.4268C14.7818 9.95167 13.4635 8.62167 13.4635 6.965V2.98783C13.4635 1.34167 14.7818 0 16.4268 0H20.3701Z" fill="#27ACA0"/>
</svg>
