<svg width="16" height="16" viewBox="0 0 16 16" fill="none" xmlns="http://www.w3.org/2000/svg">
<circle opacity="0.5" cx="8" cy="8" r="7" fill="#27ACA0" stroke="#27ACA0" stroke-width="2"/>
<path fill-rule="evenodd" clip-rule="evenodd" d="M5.70188 4.64125C5.40899 4.34835 4.93412 4.34835 4.64122 4.64125C4.34833 4.93414 4.34833 5.40901 4.64122 5.70191L6.93932 8.00001L4.64123 10.2981C4.34834 10.591 4.34834 11.0659 4.64123 11.3588C4.93413 11.6517 5.409 11.6517 5.70189 11.3588L7.99998 9.06067L10.2981 11.3588C10.591 11.6517 11.0658 11.6517 11.3587 11.3588C11.6516 11.0659 11.6516 10.591 11.3587 10.2981L9.06064 8.00001L11.3587 5.70191C11.6516 5.40901 11.6516 4.93414 11.3587 4.64125C11.0659 4.34835 10.591 4.34835 10.2981 4.64125L7.99998 6.93935L5.70188 4.64125Z" fill="white"/>
</svg>
